<svg aria-hidden="true" style="position: absolute; width: 0; height: 0; overflow: hidden;" version="1.1" xmlns="http://www.w3.org/2000/svg" xmlns:xlink="http://www.w3.org/1999/xlink">
<defs>
<symbol id="icon-calender" viewBox="0 0 30 32">
<path d="M1.524 6.21c0-1.676 1.371-3.048 3.048-3.048h21.333c0.808 0 1.583 0.321 2.155 0.893s0.893 1.347 0.893 2.155v21.333c0 0.808-0.321 1.583-0.893 2.155s-1.347 0.893-2.155 0.893h-21.333c-0.808 0-1.583-0.321-2.155-0.893s-0.893-1.347-0.893-2.155v-21.333zM4.571 9.257v18.286h21.333v-18.286h-21.333zM7.619 0.115h3.048v3.048h-3.048v-3.048zM19.81 0.115h3.048v3.048h-3.048v-3.048zM7.619 13.829h3.048v3.048h-3.048v-3.048zM7.619 19.924h3.048v3.048h-3.048v-3.048zM13.714 13.829h3.048v3.048h-3.048v-3.048zM13.714 19.924h3.048v3.048h-3.048v-3.048zM19.81 13.829h3.048v3.048h-3.048v-3.048zM19.81 19.924h3.048v3.048h-3.048v-3.048z"></path>
</symbol>
<symbol id="icon-people" viewBox="0 0 24 24">
<path d="M9 12.984q1.5 0 3.281 0.422t3.258 1.406 1.477 2.203v3h-16.031v-3q0-1.219 1.477-2.203t3.258-1.406 3.281-0.422zM15 12q-0.609 0-1.313-0.234 1.313-1.547 1.313-3.75 0-0.891-0.375-2.016t-0.938-1.781q0.703-0.234 1.313-0.234 1.641 0 2.813 1.195t1.172 2.836-1.172 2.813-2.813 1.172zM5.016 8.016q0-1.641 1.172-2.836t2.813-1.195 2.813 1.195 1.172 2.836-1.172 2.813-2.813 1.172-2.813-1.172-1.172-2.813zM16.688 13.125q2.484 0.375 4.406 1.383t1.922 2.508v3h-4.031v-3q0-2.297-2.297-3.891z"></path>
</symbol>
</defs>
</svg>
