<svg aria-hidden="true" style="position: absolute; width: 0; height: 0; overflow: hidden;" version="1.1" xmlns="http://www.w3.org/2000/svg" xmlns:xlink="http://www.w3.org/1999/xlink">
<defs>
<symbol id="exclamation-point" viewBox="0 0 7 32">
<path d="M0.171 28.966c0-0.904 0.363-1.712 1.089-2.425 0.74-0.712 1.555-1.069 2.445-1.069s1.616 0.267 2.178 0.801c0.575 0.534 0.863 1.274 0.863 2.219s-0.418 1.822-1.253 2.63c-0.63 0.548-1.377 0.822-2.24 0.822s-1.596-0.274-2.199-0.822c-0.589-0.534-0.884-1.253-0.884-2.158zM5.719 22.452c-0.781 0.342-1.548 0.514-2.301 0.514-0.74 0-1.466-0.089-2.178-0.267 0-0.041-0.034-0.301-0.103-0.781-0.069-0.493-0.13-0.979-0.185-1.459s-0.123-1.151-0.205-2.014c-0.082-0.863-0.158-1.849-0.226-2.959s-0.137-2.377-0.205-3.801c-0.137-2.781-0.233-6.527-0.288-11.24 1.534-0.26 2.856-0.39 3.966-0.39 1.123 0 2.034 0.13 2.733 0.39-0.603 7.795-0.938 15.13-1.007 22.007z"></path>
</symbol>
<symbol id="pasport" viewBox="0 0 32 32">
<path d="M27 23h-8v2h8v-2z"></path>
<path d="M27 19h-8v2h8v-2z"></path>
<path d="M27 15h-8v2h8v-2z"></path>
<path d="M30 7h-12v2h11v18h-26v-18h11v-2h-12c-0.552 0-1 0.448-1 1v20c0 0.552 0.448 1 1 1h28c0.552 0 1-0.448 1-1v-20c0-0.552-0.448-1-1-1z"></path>
<path d="M13 9.667v-6.667h6v6.667c0 0.552-0.448 1-1 1h-4c-0.552 0-1-0.448-1-1zM15 8.667h2v-3.667h-2v3.667z"></path>
<path d="M17 20.333c0-1.627-0.978-3.028-2.376-3.652 0.239-0.512 0.376-1.080 0.376-1.681 0-2.206-1.794-4-4-4s-4 1.794-4 4c0 0.601 0.137 1.169 0.376 1.681-1.398 0.624-2.376 2.025-2.376 3.652v4.667h12v-4.667zM11 13c1.103 0 2 0.897 2 2s-0.897 2-2 2c-1.103 0-2-0.897-2-2s0.897-2 2-2zM15 23h-8v-2.667c0-1.038 0.796-1.895 1.81-1.99 0.63 0.414 1.382 0.657 2.19 0.657s1.561-0.243 2.19-0.657c1.014 0.096 1.81 0.952 1.81 1.99v2.667z"></path>
</symbol>
</defs>
</svg>
