<svg aria-hidden="true" style="position: absolute; width: 0; height: 0; overflow: hidden;" version="1.1" xmlns="http://www.w3.org/2000/svg" xmlns:xlink="http://www.w3.org/1999/xlink">
<defs>
<symbol id="facebook-icon" viewBox="0 0 32 32">
<path stroke-linejoin="miter" stroke-linecap="butt" stroke-miterlimit="4" stroke-width="2.1333" d="M22.796 12.505c0.013-0.126-0.086-0.235-0.212-0.235h-4.079v-2.83c0-1.063 0.704-1.311 1.201-1.311 0.408 0 2.211 0 2.833 0 0.118 0 0.212-0.096 0.212-0.213v-4.247c0-0.118-0.095-0.213-0.212-0.213l-3.981-0.016c-4.656 0-5.715 3.485-5.715 5.715v3.115h-2.479c-0.118 0-0.213 0.096-0.213 0.213v4.388c0 0.118 0.095 0.213 0.213 0.213h2.479c0 5.567 0 12.162 0 13.413 0 0.118 0.095 0.211 0.213 0.211h5.236c0.118 0 0.213-0.093 0.213-0.211 0-1.258 0-7.91 0-13.413h3.629c0.109 0 0.201-0.083 0.212-0.192l0.45-4.388z"></path>
</symbol>
<symbol id="instagram-icon" viewBox="0 0 32 32">
<path d="M15.997 2.347c-3.708 0-4.173 0.016-5.629 0.082-1.453 0.066-2.446 0.297-3.314 0.635-0.898 0.349-1.659 0.816-2.418 1.575s-1.226 1.52-1.575 2.418c-0.338 0.868-0.568 1.861-0.635 3.314-0.066 1.456-0.082 1.921-0.082 5.629s0.016 4.173 0.082 5.629c0.066 1.453 0.297 2.446 0.635 3.314 0.349 0.898 0.816 1.659 1.575 2.418s1.52 1.226 2.418 1.575c0.869 0.337 1.861 0.568 3.314 0.635 1.456 0.066 1.921 0.082 5.629 0.082s4.173-0.016 5.629-0.082c1.453-0.066 2.446-0.297 3.314-0.635 0.898-0.349 1.659-0.816 2.418-1.575s1.226-1.52 1.575-2.418c0.337-0.869 0.568-1.861 0.635-3.314 0.066-1.456 0.082-1.921 0.082-5.629s-0.016-4.173-0.082-5.629c-0.066-1.453-0.297-2.446-0.635-3.314-0.349-0.898-0.816-1.659-1.575-2.418s-1.52-1.226-2.418-1.575c-0.869-0.338-1.861-0.568-3.314-0.635-1.456-0.066-1.921-0.082-5.629-0.082zM15.997 4.807c3.646 0 4.077 0.014 5.517 0.080 1.331 0.061 2.054 0.283 2.535 0.47 0.637 0.248 1.092 0.544 1.57 1.021s0.774 0.933 1.021 1.57c0.187 0.481 0.409 1.204 0.47 2.535 0.066 1.44 0.080 1.871 0.080 5.517s-0.014 4.077-0.080 5.517c-0.061 1.331-0.283 2.054-0.47 2.535-0.248 0.637-0.544 1.092-1.021 1.57s-0.933 0.774-1.57 1.021c-0.481 0.187-1.204 0.409-2.535 0.47-1.439 0.066-1.871 0.080-5.517 0.080s-4.078-0.014-5.517-0.080c-1.331-0.061-2.054-0.283-2.535-0.47-0.637-0.248-1.092-0.544-1.57-1.021s-0.774-0.933-1.021-1.57c-0.187-0.481-0.409-1.204-0.47-2.535-0.066-1.44-0.080-1.872-0.080-5.517s0.014-4.077 0.080-5.517c0.061-1.331 0.283-2.054 0.47-2.535 0.248-0.637 0.544-1.092 1.021-1.57s0.933-0.774 1.57-1.021c0.481-0.187 1.204-0.409 2.535-0.47 1.44-0.066 1.872-0.080 5.517-0.080z"></path>
<path d="M15.995 20.551c-2.514 0-4.551-2.038-4.551-4.551s2.038-4.551 4.551-4.551c2.514 0 4.551 2.038 4.551 4.551s-2.038 4.551-4.551 4.551zM15.995 8.989c-3.872 0-7.011 3.139-7.011 7.011s3.139 7.011 7.011 7.011c3.872 0 7.011-3.139 7.011-7.011s-3.139-7.011-7.011-7.011z"></path>
<path d="M24.925 8.712c0 0.905-0.733 1.638-1.638 1.638s-1.638-0.734-1.638-1.638 0.734-1.638 1.638-1.638c0.905 0 1.638 0.734 1.638 1.638z"></path>
</symbol>
<symbol id="icon-mail-icon" viewBox="0 0 32 32">
<path d="M29.182 7.957c-0.059-0.079-0.133-0.146-0.217-0.196s-0.178-0.084-0.276-0.098c-0.098-0.014-0.197-0.009-0.292 0.015s-0.185 0.067-0.264 0.126l-12.098 9.030c-0.043 0.032-0.096 0.050-0.15 0.050s-0.107-0.018-0.15-0.050l-11.86-9.070c-0.078-0.060-0.168-0.104-0.263-0.129s-0.194-0.031-0.292-0.018c-0.098 0.013-0.192 0.045-0.277 0.095s-0.16 0.115-0.22 0.194c-0.060 0.078-0.103 0.168-0.129 0.263s-0.031 0.194-0.018 0.292c0.013 0.098 0.045 0.192 0.095 0.277s0.115 0.16 0.194 0.22l9.325 7.133-9.222 6.95c-0.079 0.059-0.146 0.134-0.197 0.219s-0.084 0.179-0.098 0.277c-0.014 0.098-0.009 0.198 0.015 0.294s0.067 0.186 0.127 0.266c0.059 0.079 0.134 0.147 0.219 0.197s0.179 0.084 0.278 0.099c0.098 0.014 0.198 0.009 0.294-0.015s0.186-0.067 0.266-0.127l9.557-7.215 1.295 1c0.302 0.231 0.671 0.358 1.051 0.36s0.751-0.119 1.056-0.345l1.36-1.015 9.67 7.215c0.079 0.059 0.169 0.102 0.264 0.126s0.195 0.029 0.292 0.015c0.098-0.014 0.191-0.047 0.276-0.098s0.158-0.117 0.217-0.196 0.102-0.169 0.126-0.264c0.024-0.096 0.029-0.195 0.015-0.292s-0.047-0.191-0.098-0.276c-0.050-0.085-0.117-0.159-0.196-0.218l-9.315-6.96 9.488-7.088c0.157-0.119 0.262-0.295 0.29-0.49s-0.021-0.394-0.138-0.553z"></path>
<path stroke-linejoin="miter" stroke-linecap="butt" stroke-miterlimit="4" stroke-width="0.8421" d="M28.25 4.75h-24.5c-0.995 0-1.948 0.395-2.652 1.098s-1.098 1.657-1.098 2.652v15c0 0.995 0.395 1.948 1.098 2.652s1.657 1.098 2.652 1.098h24.5c0.995 0 1.948-0.395 2.652-1.098s1.098-1.657 1.098-2.652v-15c0-0.995-0.395-1.948-1.098-2.652s-1.657-1.098-2.652-1.098zM30.5 23.5c0 0.597-0.237 1.169-0.659 1.591s-0.994 0.659-1.591 0.659h-24.5c-0.597 0-1.169-0.237-1.591-0.659s-0.659-0.994-0.659-1.591v-15c0-0.597 0.237-1.169 0.659-1.591s0.994-0.659 1.591-0.659h24.5c0.597 0 1.169 0.237 1.591 0.659s0.659 0.994 0.659 1.591v15z"></path>
</symbol>
<symbol id="icon-telegram-icon" viewBox="0 0 32 32">
<path stroke-linejoin="round" stroke-linecap="round" stroke-miterlimit="10" stroke-width="2.24" d="M29.863 6.437l-4.208 19.845c-0.317 1.401-1.145 1.749-2.322 1.089l-6.412-4.725-3.094 2.976c-0.342 0.342-0.629 0.629-1.289 0.629l0.461-6.53 11.883-10.738c0.517-0.461-0.112-0.716-0.803-0.255l-14.69 9.25-6.324-1.979c-1.376-0.43-1.401-1.376 0.286-2.036l24.737-9.53c1.145-0.429 2.148 0.255 1.774 2.004z"></path>
</symbol>
<symbol id="icon-whatsapp-icon" viewBox="0 0 32 32">
<path d="M31.625 15.794c-0.006 2.706-0.594 5.094-1.781 7.313-1.119 2.094-2.663 3.837-4.606 5.212-1.706 1.206-3.575 2.031-5.619 2.456-2.263 0.469-4.525 0.419-6.769-0.119-1.188-0.288-2.325-0.725-3.394-1.306-0.181-0.1-0.338-0.106-0.531-0.044-2.356 0.756-4.713 1.506-7.069 2.256-0.269 0.087-0.531 0.169-0.8 0.269-0.188 0.069-0.2 0-0.15-0.156 0.275-0.806 0.544-1.612 0.819-2.425 0.587-1.756 1.175-3.512 1.775-5.262 0.081-0.231-0.038-0.381-0.131-0.544-0.738-1.281-1.262-2.644-1.587-4.081-0.706-3.1-0.456-6.137 0.731-9.081 0.688-1.7 1.669-3.225 2.925-4.575 1.6-1.725 3.494-2.994 5.681-3.844 2.044-0.794 4.156-1.1 6.331-0.969 2.981 0.181 5.694 1.169 8.075 2.969 3.081 2.325 5.019 5.381 5.794 9.175 0.206 0.969 0.281 1.95 0.306 2.756zM16.406 3.425c-0.581-0.025-1.262 0.044-1.944 0.144-0.269 0.038-0.531 0.094-0.794 0.163-4.063 1.031-6.981 3.456-8.7 7.275-0.994 2.206-1.262 4.537-0.888 6.925 0.294 1.887 0.994 3.625 2.087 5.194 0.119 0.175 0.138 0.325 0.069 0.519-0.463 1.356-0.912 2.719-1.369 4.081-0.025 0.075-0.1 0.163-0.031 0.231 0.069 0.075 0.156-0.006 0.231-0.031 1.369-0.437 2.737-0.869 4.094-1.325 0.313-0.106 0.538-0.056 0.806 0.106 3.069 1.844 6.35 2.331 9.806 1.413 2.625-0.694 4.788-2.125 6.5-4.238 1.656-2.044 2.581-4.381 2.769-6.994 0.144-2.006-0.169-3.956-0.969-5.819-1.006-2.344-2.575-4.219-4.694-5.612-2.075-1.362-4.369-2.063-6.975-2.031z"></path>
<path d="M8.944 12.35c0.025-1.406 0.575-2.563 1.65-3.463 0.306-0.256 0.675-0.363 1.081-0.294 0.175 0.025 0.356 0.050 0.525 0.031 0.425-0.031 0.669 0.206 0.8 0.556 0.4 1.050 0.787 2.106 1.181 3.156 0.075 0.2 0.056 0.381-0.037 0.569-0.244 0.506-0.631 0.9-1.019 1.294-0.338 0.344-0.356 0.456-0.125 0.875 1.119 2.025 2.662 3.6 4.8 4.556 0.106 0.044 0.2 0.119 0.3 0.163 0.269 0.131 0.512 0.119 0.738-0.113 0.438-0.444 0.844-0.919 1.238-1.406 0.306-0.381 0.45-0.437 0.881-0.244 1.050 0.487 2.050 1.056 3.069 1.606 0.338 0.181 0.375 0.431 0.325 0.888-0.206 1.856-1.625 2.7-3.244 2.969-0.544 0.087-1.056 0.037-1.569-0.125-1.5-0.475-2.975-1.025-4.3-1.887-1.238-0.806-2.3-1.812-3.231-2.956-0.906-1.119-1.713-2.3-2.381-3.581-0.375-0.731-0.681-1.869-0.681-2.594z"></path>
</symbol>
</defs>
</svg>
